<svg xmlns="http://www.w3.org/2000/svg" width="8000" height="8000" viewBox="0 0 8000 8000">
  <g id="Layer_2" data-name="Layer 2">
    <polygon points="
	8000 0 
	4000 0 
	0 0 
	0 4000 
	0 8000 
	4000 8000 
	8000 8000 
	8000 4000
	8000 0" style="fill: none"/>
    <polygon points="2432 1622 1707 1077 1370 2246 2094 2789 2432 1622" style="fill: aqua"/>
    <polygon points="1567 4002 769 4000 771 4799 1569 4800 1567 4002" style="fill: aqua"/>
    <polygon points="2556 3979 1762 3892 1572 5624 2367 5716 2556 3979" style="fill: aqua"/>
    <polygon points="6228 6101 4868 5616 4512 6606 5868 7096 6228 6101" style="fill: aqua"/>
    <polygon points="4382 1276 3663 926 3313 1643 4022 1992 4382 1276" style="fill: aqua"/>
    <polygon points="4402 3601 3604 3599 3605 4398 4404 4399 4402 3601" style="fill: aqua"/>
    <polygon points="7105 4189 6307 4187 6309 4986 7107 4987 7105 4189" style="fill: aqua"/>
    <polygon points="6307 1460 4786 1461 4785 2983 6309 2983 6307 1460" style="fill: aqua"/>
  </g>
</svg>
